<?xml version="1.0" encoding="UTF-8"?>
<svg id="Camada_1" data-name="Camada 1" xmlns="http://www.w3.org/2000/svg" viewBox="0 0 64 64">
  <defs>
    <style>
      .cls-1 {
        fill: #48c9b0;
      }
    </style>
  </defs>
  <path class="cls-1" d="M27.81,52.17c-.1,0-.2-.02-.3-.05-3.67-1.17-7-3.2-9.72-5.92-2.72-2.72-4.75-6.05-5.92-9.72-.05-.14-.06-.28-.04-.42,.02-.14,.07-.28,.16-.4l13.58-19.38C34.25,5.02,48.24-1,63.02,.14c.22,.02,.42,.11,.58,.26,.15,.15,.25,.36,.27,.58,1.14,14.78-4.89,28.77-16.12,37.42l-.03,.02-19.38,13.58c-.15,.11-.34,.17-.52,.17Zm-.14-1.93l18.98-13.3C57.18,28.82,62.92,15.77,62.1,1.91c-13.88-.82-26.93,4.92-35.05,15.46l-13.29,18.96"/>
  <path class="cls-1" d="M60.8,19.48c-.06,0-.12,0-.17-.02-3.99-.76-7.65-2.7-10.51-5.58-2.88-2.86-4.82-6.53-5.58-10.51-.05-.24,0-.48,.14-.68,.14-.2,.35-.34,.58-.38,.24-.05,.48,0,.68,.14,.2,.14,.34,.35,.38,.58,.69,3.63,2.46,6.96,5.08,9.56,2.6,2.62,5.94,4.38,9.56,5.08,.22,.04,.42,.17,.56,.35,.14,.18,.2,.41,.18,.63-.02,.23-.13,.44-.29,.59-.17,.15-.39,.24-.61,.24Z"/>
  <path class="cls-1" d="M39.93,31.22c-1.65,0-3.26-.58-4.54-1.63-1.28-1.05-2.15-2.51-2.48-4.13-.32-1.62-.07-3.31,.71-4.77,.78-1.46,2.04-2.6,3.57-3.23,1.53-.63,3.23-.72,4.81-.23,1.58,.48,2.95,1.5,3.87,2.87,.92,1.38,1.33,3.03,1.17,4.67-.16,1.65-.89,3.19-2.06,4.36-.66,.66-1.45,1.19-2.32,1.55-.87,.36-1.8,.54-2.74,.54Zm0-12.48c-1.23,0-2.43,.43-3.38,1.21-.95,.78-1.61,1.87-1.85,3.08s-.05,2.46,.53,3.55c.58,1.09,1.52,1.94,2.66,2.41,1.14,.47,2.41,.53,3.59,.18,1.18-.36,2.2-1.11,2.88-2.14,.69-1.03,.99-2.26,.87-3.48-.12-1.23-.66-2.37-1.54-3.25-.49-.5-1.08-.89-1.73-1.16-.65-.27-1.34-.4-2.04-.4Z"/>
  <path class="cls-1" d="M35,63.93h-.05c-.15,0-.29-.05-.42-.13-.13-.08-.23-.18-.31-.31l-7.19-11.76c-.13-.21-.17-.46-.11-.69,.06-.24,.2-.44,.41-.57,.21-.13,.46-.17,.69-.11,.24,.06,.44,.2,.57,.41l6.5,10.64,4.92-6.23c1.09-1.38,1.88-2.97,2.35-4.66,.47-1.69,.59-3.46,.37-5.21l-.6-4.62c-.02-.12-.01-.24,.02-.36,.03-.12,.08-.23,.16-.32,.07-.1,.16-.18,.27-.24,.1-.06,.22-.1,.34-.12,.12-.02,.24,0,.36,.02,.12,.03,.23,.09,.32,.16,.1,.07,.18,.17,.23,.27,.06,.11,.1,.22,.11,.34l.6,4.62c.25,1.98,.11,4-.42,5.93-.53,1.93-1.44,3.73-2.68,5.3l-5.73,7.26c-.09,.11-.19,.19-.32,.25-.12,.06-.26,.09-.4,.09Z"/>
  <path class="cls-1" d="M12.74,37.1c-.17,0-.33-.05-.48-.13L.51,29.78c-.13-.08-.23-.18-.31-.31-.08-.13-.12-.27-.13-.42s.02-.29,.08-.43c.06-.13,.15-.25,.27-.34l7.26-5.73c1.57-1.24,3.38-2.15,5.31-2.68,1.93-.53,3.94-.68,5.93-.42l4.62,.6c.12,.01,.24,.05,.34,.11,.11,.06,.2,.14,.27,.23,.07,.1,.13,.2,.16,.32,.03,.12,.04,.24,.02,.36-.02,.12-.06,.24-.12,.34-.06,.1-.14,.2-.24,.27-.1,.07-.21,.13-.32,.16-.12,.03-.24,.04-.36,.02l-4.62-.6c-1.74-.22-3.51-.09-5.21,.37-1.69,.47-3.28,1.27-4.66,2.35l-6.24,4.92,10.64,6.5c.17,.1,.3,.26,.37,.45,.07,.19,.08,.39,.03,.58-.05,.19-.17,.36-.33,.48-.16,.12-.35,.19-.55,.19Z"/>
  <path class="cls-1" d="M12.11,64c-.18,0-.36-.05-.51-.15-.15-.1-.27-.24-.34-.41-.07-.17-.09-.35-.05-.53,.04-.18,.12-.34,.25-.47l8.16-8.16c.08-.09,.19-.16,.3-.2,.11-.05,.23-.07,.35-.07,.12,0,.24,.02,.35,.07,.11,.05,.21,.11,.3,.2,.09,.09,.15,.19,.2,.3,.05,.11,.07,.23,.07,.35,0,.12-.03,.24-.07,.35-.05,.11-.12,.21-.2,.3l-8.16,8.16c-.17,.17-.4,.27-.65,.27Z"/>
  <path class="cls-1" d="M.91,52.8c-.18,0-.36-.05-.51-.15-.15-.1-.27-.24-.34-.41-.07-.17-.09-.35-.05-.53,.04-.18,.12-.34,.25-.47l8.16-8.16c.08-.09,.19-.16,.3-.2,.11-.05,.23-.07,.35-.07,.12,0,.24,.02,.35,.07,.11,.05,.21,.11,.3,.2,.09,.09,.15,.19,.2,.3,.05,.11,.07,.23,.07,.35,0,.12-.03,.24-.07,.35-.05,.11-.12,.21-.2,.3L1.56,52.53c-.17,.17-.4,.27-.65,.27Z"/>
  <path class="cls-1" d="M1.47,63.45c-.18,0-.36-.05-.51-.15-.15-.1-.27-.24-.34-.41-.07-.17-.09-.35-.05-.53,.04-.18,.12-.34,.25-.47l8.78-8.78c.17-.17,.4-.26,.64-.26,.24,0,.47,.1,.64,.27,.17,.17,.27,.4,.27,.64,0,.24-.09,.47-.26,.64L2.11,63.18c-.17,.17-.4,.27-.65,.27Z"/>
</svg>