<?xml version="1.0" encoding="UTF-8"?>
<svg id="Camada_1" data-name="Camada 1" xmlns="http://www.w3.org/2000/svg" viewBox="0 0 56 56">
  <defs>
    <style>
      .cls-1 {
        fill: #f1c40f;
      }
    </style>
  </defs>
  <path class="cls-1" d="M55.1,50.58h-11.34l5.8-20.61,5.95-2.97c.45-.22,.63-.77,.4-1.21l-1.81-3.61c-.11-.22-.31-.39-.56-.46-.24-.07-.5-.04-.72,.09l-8.82,5.29h-10.59c-.5,0-.9,.4-.9,.9v3.61c0,.5,.4,.9,.9,.9h9.03l-5.08,18.06h-1.23c0-1.73-1.22-3.18-2.84-3.53l-1.69-9.28c-.02-.08-.04-.17-.08-.24l-5.25-10.5,.09-.28c.1-.29,.19-.59,.28-.89,.49,.21,1.01,.33,1.56,.33,.73,0,1.45-.2,2.07-.59l5.68-3.55c.78-.49,1.24-1.33,1.24-2.24,0-1.46-1.19-2.65-2.65-2.65-.81,0-1.6,.24-2.27,.69l-3.76,2.51-.6-1.2c.07-.84,.1-1.68,.1-2.53,0-.9-.3-1.76-.86-2.46,2.58-.79,4.47-3.2,4.47-6.04v-1.81c0-3.49-2.84-6.32-6.32-6.32s-6.32,2.84-6.32,6.32v1.81c0,1.78,.74,3.39,1.93,4.54-.95,.06-1.88,.41-2.61,1.02l-4.42,3.68c-.28,.24-.4,.63-.28,.98l3.25,9.76s.01,.03,.02,.05l-2.25,9.01c-2.89,.64-5.65,1.7-8.22,3.17l-2.32,1.33c-.28,.16-.46,.46-.46,.78v5.42c0,.5,.4,.9,.9,.9h.9c1.75,0,3.2-1.24,3.54-2.89l10.23-2.56c.3-.07,.54-.3,.64-.59l2.2-6.59,3.27,3.93c.07,2.89,1.02,5.74,2.71,8.09v2.41H.9c-.5,0-.9,.4-.9,.9v3.61c0,.5,.4,.9,.9,.9H55.1c.5,0,.9-.4,.9-.9v-3.61c0-.5-.4-.9-.9-.9Zm-14.23,3.61h-2.64l6.1-21.69c.12,0,.23-.03,.34-.08l2.71-1.35-6.5,23.13Zm-6.54-25.29h9.94c.16,0,.32-.04,.47-.13l8.2-4.92,.97,1.93-9.84,4.92h-9.72v-1.81Zm-6.4-6.35c.25,.07,.52,.02,.73-.12l4.61-3.08c.38-.25,.82-.38,1.27-.38s.84,.38,.84,.84c0,.29-.15,.56-.4,.71l-5.68,3.55c-.66,.41-1.52,.4-2.18,0,.14-.6,.27-1.2,.37-1.81,.12,.13,.25,.23,.42,.28Zm-2.63-9.91c-.56,0-1.09-.11-1.58-.3l1.4-1.87c.12-.16,.18-.35,.18-.54v-2.71h4.52v.9c0,2.49-2.03,4.52-4.52,4.52Zm-4.52-4.52v-1.81c0-2.49,2.03-4.52,4.52-4.52,2.18,0,4,1.55,4.42,3.61h-5.33c-.5,0-.9,.4-.9,.9v3.31l-1.31,1.75c-.86-.82-1.4-1.97-1.4-3.25Zm4.52,6.32c0,.24,.09,.47,.26,.64,.41,.41,.64,.96,.64,1.54,0,3.22-.51,6.4-1.52,9.46l-3.17-.45c-.05-.26-.09-.53-.17-.79l-1.31-4.57,2.8-1.68c.96-.58,1.56-1.63,1.56-2.75,0-.56-.16-1.08-.41-1.54,.42,.09,.86,.14,1.32,.14Zm-9.79,3.91l3.94-3.29c.48-.4,1.1-.63,1.73-.63,.77,0,1.4,.63,1.4,1.4,0,.49-.26,.95-.68,1.2l-3.4,2.04c-.35,.21-.52,.63-.4,1.02l1.49,5.23c.18,.64,.28,1.31,.28,1.98,0,.37-.3,.67-.67,.67-.29,0-.55-.18-.64-.46l-3.06-9.18ZM5.42,46.97v-3.99l.47-.27,1.32,2.63c-.09,.91-.85,1.63-1.79,1.63Zm21.68-7.23c0-.21-.07-.42-.21-.58l-4.49-5.39-1.78-2.67-1.5,1,1.56,2.34-2.41,7.24-9.65,2.41-1.15-2.29c2.52-1.42,5.23-2.43,8.07-3,.34-.07,.61-.33,.7-.67l2.12-8.5c.27,.1,.55,.15,.84,.15,1.31,0,2.38-1.03,2.46-2.31l3.03,.43,5.15,10.3,1.59,8.74h-2.06c-1.47-2.11-2.28-4.65-2.28-7.23Zm2.71,9.03h2.71c1,0,1.81,.81,1.81,1.81h-4.52v-1.81ZM1.81,52.39H36.86l-.51,1.81H1.81v-1.81Zm52.39,1.81h-11.45l.51-1.81h10.95v1.81Z"/>
</svg>