<?xml version="1.0" encoding="UTF-8"?>
<svg id="Camada_1" data-name="Camada 1" xmlns="http://www.w3.org/2000/svg" viewBox="0 0 53.02 55">
  <defs>
    <style>
      .cls-1 {
        fill: #f1c40f;
      }
    </style>
  </defs>
  <path class="cls-1" d="M42.79,18.02c.18,.18,.41,.27,.65,.27s.47-.09,.65-.27l6.37-6.37c1.82-1.82,1.82-4.79,0-6.62-1.82-1.83-4.79-1.82-6.62,0l-.4,.4-.4-.4c-1.83-1.82-4.79-1.82-6.62,0-.88,.88-1.37,2.06-1.37,3.31s.49,2.43,1.37,3.31l6.37,6.37Zm-5.08-11.7c.56-.56,1.29-.83,2.02-.83s1.46,.28,2.02,.83l1.04,1.04c.17,.17,.4,.27,.65,.27s.48-.1,.65-.27l1.04-1.04c1.11-1.11,2.92-1.11,4.03,0s1.11,2.92,0,4.03l-5.72,5.72-5.72-5.72c-.54-.54-.84-1.26-.84-2.02,0-.76,.3-1.48,.84-2.02Z"/>
  <path class="cls-1" d="M52.01,53.03c-7.81,.87-14.01-2.59-14.07-2.63-.21-.12-.46-.15-.69-.09-.1,.03-9.93,2.66-17.85,.9-4.94-1.1-9.59-4.57-12.99-7.11-.46-.34-.89-.66-1.3-.96-.55-.41-1.44-.74-2.21-1.04-.35-.13-.83-.32-.93-.38-.09-.07-.14-.17-.14-.29v-2.12c.04-1.68,7.07-27.48,8.16-30.76,.03-.04,.13-.11,.21-.15L24.11,2.05l4.5,5.86c.22,.3,.2,.73-.05,1.01l-4.44,4.98c-.29,.33-.78,.36-1.08,.11l-1.8-1.66c-.21-.19-.51-.26-.79-.21-.28,.05-.53,.25-.66,.51-.15,.3-1.51,.66-2.9,.67l-.45-.05c-.36-.04-.71,.15-.89,.47-.18,.32-.15,.71,.08,1,.39,.5,.69,.9,.86,1.13l.89,15.12c-.55,2.15-1.06,2.76-1.18,2.88-.37,.12-.64,.46-.64,.87,0,.5,.41,.91,.91,.91,1.04,0,1.92-1.36,2.63-4.02,7.27-5.44,13.62-.31,14.12,.12,2.31,2.32,2.45,3.86,2.46,3.93,.01,.5,.42,.89,.91,.89s.91-.41,.91-.91c0-.21-.08-2.01-2.44-4.62,2.23-2.74,4.77-4.32,7.57-4.67,4.82-.59,8.88,2.65,8.92,2.68,.39,.32,.97,.26,1.29-.13,.32-.39,.26-.97-.13-1.28-.19-.15-4.68-3.77-10.28-3.08-3.28,.4-6.22,2.17-8.75,5.27-2.06-1.4-7.96-4.57-14.55-.42l-.82-13.91c0-.15-.05-.3-.13-.42,.82-.1,1.79-.31,2.5-.78l1.18,1.09c1.1,.92,2.7,.81,3.66-.26l4.44-4.98c.82-.92,.89-2.31,.15-3.32L25.12,.36c-.26-.34-.72-.45-1.1-.27L9.45,6.73c-.15,.07-.92,.44-1.18,1.2C7.76,9.49,0,37.16,0,39.31v2.12c0,.68,.31,1.31,.84,1.73,.27,.21,.66,.37,1.4,.65,.6,.23,1.43,.55,1.79,.81,.4,.29,.83,.61,1.28,.95,3.53,2.64,8.37,6.25,13.69,7.43,7.57,1.68,16.46-.35,18.37-.83,1.27,.66,5.94,2.83,12.05,2.83,.9,0,1.84-.05,2.79-.15,.5-.06,.86-.51,.81-1.01-.06-.5-.51-.87-1.01-.81Z"/>
  <path class="cls-1" d="M47.53,41.95c-.05-.46-.44-.81-.91-.81-.5,0-.91,.41-.91,.91,0,.61,.45,2.68,6.25,3.64,.05,0,.1,.01,.15,.01,.44,0,.83-.32,.9-.76,.08-.5-.25-.97-.75-1.05-4.05-.68-4.67-1.82-4.73-1.94Z"/>
  <path class="cls-1" d="M29.98,46.64c-11.97,2.56-17.1-5.63-17.31-5.98-.26-.43-.82-.57-1.25-.31-.43,.26-.57,.82-.31,1.25,.06,.1,1.52,2.49,4.63,4.52,2.14,1.4,5.41,2.83,9.83,2.83,1.47,0,3.07-.16,4.8-.53,.49-.11,.81-.59,.7-1.09-.11-.49-.59-.81-1.09-.7Z"/>
</svg>