<?xml version="1.0" encoding="UTF-8"?>
<svg id="Camada_1" data-name="Camada 1" xmlns="http://www.w3.org/2000/svg" viewBox="0 0 51.07 55">
  <defs>
    <style>
      .cls-1 {
        fill: #f1c40f;
      }
    </style>
  </defs>
  <path class="cls-1" d="M16.7,27.5c-.54,0-.98,.44-.98,.98v20.63H.98c-.54,0-.98,.44-.98,.98s.44,.98,.98,.98H15.71v1.96h-2.95c-.54,0-.98,.44-.98,.98s.44,.98,.98,.98H30.45c.54,0,.98-.44,.98-.98s-.44-.98-.98-.98h-2.95v-7.86h13.75v7.86h-.98c-.54,0-.98,.44-.98,.98s.44,.98,.98,.98h7.86c.54,0,.98-.44,.98-.98s-.44-.98-.98-.98h-.98v-7.86h2.95c.54,0,.98-.44,.98-.98v-3.93c0-.54-.44-.98-.98-.98h-1.16c.11-.31,.18-.64,.18-.98,0-1.62-1.32-2.95-2.95-2.95H27.5v-6.88c0-.54-.44-.98-.98-.98h-.98V2.8l8.27-.59c-.26,.52-.41,1.1-.41,1.71,0,2.17,1.76,3.93,3.93,3.93,.72,0,1.38-.21,1.96-.55V15.98l-8.85,5.28c-.47,.28-.62,.88-.34,1.35,.18,.31,.51,.48,.84,.48,.17,0,.35-.05,.5-.14l8.78-5.24,5.7,4.05c.17,.12,.37,.18,.57,.18,.31,0,.61-.14,.8-.41,.31-.44,.21-1.05-.23-1.37l-5.81-4.13V3.93c0-2.17-1.76-3.93-3.93-3.93-.02,0-.03,0-.05,0,0,0-.01,0-.02,0L9.75,1.97s-.02,0-.02,0c-2.12,.05-3.84,1.78-3.84,3.92V27.83l-5.21,1.68c-.41,.13-.68,.51-.68,.93v15.71c0,.54,.44,.98,.98,.98H12.77c.54,0,.98-.44,.98-.98v-15.71c0-.42-.27-.79-.66-.93l-5.23-1.8V9.28c.58,.34,1.25,.55,1.96,.55,2.17,0,3.93-1.76,3.93-3.93,0-.81-.25-1.57-.67-2.19l4.6-.33V27.5h-.98Zm.98,25.54V29.46h7.86v23.57h-7.86Zm27.5,0h-1.96v-7.86h1.96v7.86Zm3.93-9.82H27.5v-1.96h21.61v1.96Zm-2.95-5.89c.54,0,.98,.44,.98,.98s-.44,.98-.98,.98H27.5v-1.96h18.66ZM39.29,3.93c0,1.08-.88,1.96-1.96,1.96s-1.96-.88-1.96-1.96,.87-1.95,1.95-1.96h.02c1.08,0,1.96,.88,1.96,1.96ZM11.79,39.31s-.08-.03-.13-.03H2.47c-.19,0-.35,.07-.5,.16v-4.24c.15,.09,.31,.16,.5,.16H11.65s.09-.02,.13-.03v3.98ZM1.96,45.18v-4.09c.15,.09,.31,.16,.5,.16H11.65s.09-.02,.13-.03v3.96H1.96Zm9.82-11.76s-.08-.03-.13-.03H2.47c-.19,0-.35,.07-.5,.16v-2.39l5.09-1.64,4.73,1.63v2.27Zm-1.96-25.56c-1.08,0-1.96-.88-1.96-1.96s.88-1.96,1.96-1.96,1.96,.88,1.96,1.96-.88,1.96-1.96,1.96ZM19.64,3.23l3.93-.29V27.5h-3.93V3.23Z"/>
</svg>