<?xml version="1.0" encoding="UTF-8"?>
<svg id="Camada_1" data-name="Camada 1" xmlns="http://www.w3.org/2000/svg" viewBox="0 0 62.22 55">
  <defs>
    <style>
      .cls-1 {
        fill: #f1c40f;
      }
    </style>
  </defs>
  <path class="cls-1" d="M39.54,30.81l-5.86-2.7c-3.56-1.65-8.06,.1-11.31,3.96l-5.11-2.79c-1.13-.53-2.73,.44-3.49,2.07-.37,.76-.5,1.61-.38,2.44,.03,.32,.14,.62,.31,.89,.17,.27,.41,.49,.69,.64l4.73,2.59c-1.96,5.91-.49,11.82,3.68,13.74l5.86,2.7c.92,.42,1.92,.64,2.93,.63,1.68-.04,3.33-.53,4.75-1.43,2.71-1.71,4.85-4.19,6.14-7.12,3-6.48,1.68-13.51-2.94-15.64Zm-24.19,2.83c-.02-.06-.04-.12-.05-.18-.05-.45,.03-.9,.23-1.3,.18-.47,.53-.86,.98-1.09l4.68,2.56c-.5,.76-.95,1.55-1.33,2.38-.01,.02-.02,.05-.03,.07l-4.48-2.45Zm6.27,3.19c2.55-5.52,7.59-8.64,11.24-6.96l1.44,.66c-.86,.25-1.68,.61-2.45,1.06-2.71,1.71-4.85,4.18-6.14,7.12-1.4,2.88-1.9,6.12-1.44,9.29,.15,.88,.41,1.74,.78,2.55l-1.43-.66c-3.66-1.69-4.56-7.55-2.01-13.07Zm19.1,8.82c-1.13,2.58-2.99,4.76-5.37,6.26-.85,.59-1.83,.96-2.85,1.08-1.02,.12-2.06-.01-3.02-.39-.91-.49-1.69-1.19-2.26-2.05-.57-.86-.92-1.85-1.02-2.87-.39-2.78,.05-5.62,1.28-8.15,1.12-2.58,2.99-4.76,5.37-6.26,1.13-.71,2.43-1.11,3.76-1.15,.73,0,1.45,.15,2.11,.45,3.65,1.69,4.55,7.55,2,13.08Z"/>
  <path class="cls-1" d="M16.14,42.42c-.76,.39-1.59,.61-2.44,.64-.85,.03-1.7-.12-2.48-.44-2.11-.98-3.4-3.47-3.44-6.67,0-.26-.11-.5-.29-.68-.18-.18-.43-.28-.68-.28h-.01c-.13,0-.25,.03-.37,.08-.12,.05-.22,.12-.31,.22-.09,.09-.16,.2-.21,.32-.05,.12-.07,.25-.07,.37,0,1.59,.34,3.16,.98,4.61l-1.45-.67c-.91-.49-1.69-1.19-2.26-2.05-.57-.86-.92-1.85-1.02-2.87-.39-2.78,.05-5.62,1.28-8.15,1.13-2.58,2.99-4.76,5.37-6.26,.85-.59,1.83-.96,2.85-1.08,1.02-.12,2.06,.01,3.02,.39,.02,0,.04,.02,.06,.03l1.41,.65c-1.93,.69-3.69,1.77-5.17,3.17-1.48,1.41-2.66,3.11-3.45,4.99-.57,1.22-.99,2.5-1.27,3.81-.05,.25,0,.52,.14,.73,.14,.22,.36,.37,.61,.42,.07,.01,.14,.02,.2,.02,.22,0,.44-.08,.61-.22,.17-.14,.29-.34,.34-.55,.25-1.17,.63-2.31,1.14-3.4,2.55-5.52,7.59-8.65,11.24-6.96,.95,.51,1.75,1.26,2.33,2.17,.58,.91,.92,1.95,.99,3.03,.02,.13,.06,.25,.13,.36,.07,.11,.15,.21,.25,.28,.1,.08,.22,.13,.34,.16,.12,.03,.25,.04,.38,.02s.25-.06,.36-.13c.11-.07,.21-.15,.28-.25,.08-.1,.13-.22,.16-.34,.03-.12,.04-.25,.02-.38-.12-1.4-.58-2.74-1.36-3.91-.78-1.17-1.83-2.12-3.08-2.78l-5.86-2.71s-.04-.02-.06-.03c-1.24-.5-2.58-.68-3.91-.54-1.33,.14-2.6,.61-3.71,1.36-2.71,1.71-4.85,4.18-6.14,7.12-3,6.5-1.68,13.52,2.94,15.66l5.86,2.7c.91,.42,1.91,.63,2.92,.62,1.25-.01,2.48-.29,3.61-.81,.24-.11,.42-.3,.51-.54,.09-.24,.08-.51-.02-.74-.11-.24-.3-.42-.54-.51-.24-.09-.51-.08-.74,.02Z"/>
  <path class="cls-1" d="M45.7,36.01c-.26,0-.5,.11-.68,.29-.18,.18-.28,.43-.28,.69,0,.26,.11,.5,.29,.68,.18,.18,.43,.28,.69,.28h.03c1.27-.03,2.5-.4,3.58-1.08,1.07-.67,1.95-1.62,2.53-2.75,.58-1.13,.85-2.39,.78-3.65-.07-1.27-.49-2.49-1.19-3.54-.71-1.05-1.69-1.89-2.83-2.44-1.15-.54-2.42-.77-3.68-.65-1.26,.12-2.47,.57-3.5,1.31-1.03,.74-1.84,1.75-2.34,2.91-.1,.24-.11,.5-.01,.74,.09,.24,.28,.43,.52,.54,.24,.1,.5,.11,.74,.01,.24-.09,.43-.28,.54-.52,.37-.84,.95-1.57,1.7-2.11,.74-.54,1.62-.87,2.54-.95,.92-.08,1.84,.08,2.67,.47,.83,.39,1.54,1,2.05,1.77,.51,.76,.81,1.65,.87,2.57,.05,.92-.14,1.83-.56,2.65-.42,.82-1.05,1.51-1.83,1.99-.78,.49-1.67,.76-2.59,.78h0Z"/>
  <path class="cls-1" d="M60.58,4.82c-.94-1.48-2.24-2.7-3.78-3.54C55.26,.44,53.53,0,51.77,0h-12.29c-1.75,0-3.48,.44-5.02,1.28-1.54,.84-2.84,2.06-3.78,3.54-.94,1.48-1.5,3.17-1.62,4.92-.12,1.75,.21,3.5,.94,5.09l3.28,7.08c-.75,1.02-1.36,2.13-1.83,3.31-.09,.24-.08,.5,.02,.73,.1,.23,.29,.42,.53,.51,.24,.09,.5,.09,.74,0,.23-.1,.42-.28,.52-.52,.47-1.16,1.09-2.25,1.86-3.24,.01-.01,.02-.03,.03-.04,.86-1.1,1.89-2.05,3.05-2.83,0,0,.01-.01,.02-.01,1.48-.97,3.14-1.64,4.88-1.97,1.74-.32,3.53-.3,5.26,.08,1.73,.38,3.37,1.1,4.81,2.12,1.45,1.02,2.68,2.32,3.61,3.82,.94,1.5,1.57,3.18,1.85,4.92,.28,1.75,.21,3.53-.21,5.25-.42,1.72-1.18,3.34-2.23,4.76-1.05,1.42-2.38,2.62-3.91,3.52h-6.65c-.26,0-.51,.1-.69,.28-.18,.18-.28,.43-.28,.69s.1,.51,.28,.69,.43,.28,.69,.28h6.91c.17,0,.33-.05,.48-.13,1.87-1.04,3.49-2.47,4.77-4.19,1.28-1.72,2.18-3.68,2.64-5.77,.46-2.09,.48-4.25,.05-6.35-.43-2.1-1.3-4.08-2.55-5.81l3.33-7.19c.74-1.59,1.07-3.34,.95-5.09-.12-1.75-.68-3.44-1.62-4.92Zm-1.09,9.2l-2.94,6.35c-.59-.61-1.22-1.17-1.9-1.67l2.64-5.71c.43-.93,.62-1.94,.55-2.96-.07-1.02-.39-2-.94-2.86-.55-.86-1.31-1.57-2.2-2.06-.89-.49-1.9-.75-2.92-.75h-1.22c-.26,0-.51,.1-.69,.28-.18,.18-.28,.43-.28,.69s.1,.51,.28,.69c.18,.18,.43,.28,.69,.28h1.22c.69,0,1.38,.17,1.99,.51,.61,.33,1.12,.81,1.5,1.4,.37,.58,.59,1.25,.64,1.95,.05,.69-.08,1.39-.37,2.01l-2.52,5.44c-2.25-1.27-4.79-1.94-7.37-1.95-2.58-.01-5.13,.64-7.39,1.88l-2.49-5.37c-.29-.63-.42-1.32-.37-2.01,.05-.69,.27-1.36,.64-1.95,.37-.58,.89-1.07,1.5-1.4,.61-.33,1.29-.51,1.98-.51h8.16c.26,0,.51-.1,.69-.28,.18-.18,.28-.43,.28-.69s-.1-.51-.28-.69c-.18-.18-.43-.28-.69-.28h-8.16c-1.02,0-2.02,.26-2.92,.75-.89,.49-1.65,1.2-2.2,2.06-.55,.86-.87,1.84-.94,2.86-.07,1.02,.12,2.04,.55,2.96l2.6,5.61c-.68,.5-1.32,1.05-1.9,1.66l-2.9-6.25c-.6-1.3-.87-2.72-.77-4.14,.1-1.42,.55-2.8,1.32-4,.77-1.2,1.83-2.19,3.08-2.88,1.25-.69,2.66-1.05,4.08-1.04h12.29c1.43,0,2.83,.36,4.08,1.04,1.25,.69,2.31,1.68,3.08,2.88,.77,1.2,1.22,2.58,1.32,4,.1,1.42-.17,2.85-.77,4.14h0Z"/>
</svg>