<?xml version="1.0" encoding="UTF-8"?>
<svg id="Camada_1" data-name="Camada 1" xmlns="http://www.w3.org/2000/svg" viewBox="0 0 55 55">
  <defs>
    <style>
      .cls-1 {
        fill: #f1c40f;
      }
    </style>
  </defs>
  <path class="cls-1" d="M53.94,38.94l-.71-1.07v-2.3c0-1.94-.46-3.88-1.33-5.62-1.01-2.02-2.57-3.7-4.51-4.87-1.25-.75-2.68-1.14-4.13-1.14-.79,0-1.54,.18-2.23,.49-.55-.39-.92-.96-1.05-1.61l2.04-.56c4.51-1.23,7.66-5.35,7.66-10.02s-3.91-8.71-8.75-8.71c-3.13,0-6.04,1.69-7.59,4.41l-.53,.94c-.36,.63-.97,1.09-1.67,1.26l-.96,.24c-1.06,.26-1.8,1.21-1.8,2.3,0,.63,.25,1.23,.69,1.68l.06,.06-.48,1.44c-.19,.56-.28,1.14-.28,1.73,0,2.63,1.86,4.83,4.34,5.35-.14,.61-.45,1.19-.9,1.63l-1.15,1.15h-.31c-.64,0-1.24,.16-1.78,.44l-.09-.05c-3.31-1.66-7.4-1.67-10.73-.06-.01-.18-.03-.36-.03-.54V13.57l.88-1.32c.33-.5,.56-1.04,.71-1.61h1.96v3.55c0,.98,.8,1.77,1.77,1.77h1.77c.98,0,1.77-.8,1.77-1.77V1.77c0-.98-.8-1.77-1.77-1.77h-1.77c-.98,0-1.77,.8-1.77,1.77v3.55h-1.77v-1.77c0-.98-.8-1.77-1.77-1.77-1.43,0-2.66,.85-3.22,2.07-.36-.19-.78-.29-1.21-.29h-3.55c-1.16,0-2.13,.74-2.5,1.77h-1.94V1.77c0-.98-.8-1.77-1.77-1.77H1.77C.8,0,0,.8,0,1.77V14.19c0,.98,.8,1.77,1.77,1.77h1.77c.98,0,1.77-.8,1.77-1.77v-3.55h1.86c.19,1.06,.69,2.04,1.47,2.81l.21,.21V30.66c0,3.66,2.86,6.77,6.51,7.07l4.81,.4c1.09,.58,2.31,.9,3.56,.9,.82,0,1.62-.13,2.4-.39l.32-.11c.24,.75,.53,1.48,.88,2.18,.68,1.36,1.04,2.88,1.04,4.4v6.26c0,2,1.63,3.63,3.63,3.63,1.25,0,2.49-.29,3.61-.85l3.76-1.88,11.56-4.08c2.43-.86,4.06-3.16,4.06-5.74,0-1.25-.37-2.47-1.06-3.51ZM23.06,1.77h1.77V14.19s-1.77,0-1.77,0V1.77Zm-1.77,5.32v1.77h-1.77v-1.77h1.77Zm19.68-1.77c3.82,0,6.93,3.11,6.93,6.93s-2.61,7.29-6.35,8.31l-1.63,.45v-2.02l1.85-1.85c.52-.52,.81-1.23,.81-1.96,0-1.5-1.2-2.72-2.69-2.77-.21-2.07-1.61-3.85-3.61-4.51l-.58-.19c1.31-1.49,3.21-2.39,5.27-2.39Zm-9.03,21.66l1.15-1.15c.75-.75,1.25-1.73,1.43-2.77h1.86v-1.77h-2.52c-2.04,0-3.69-1.66-3.69-3.69,0-.4,.06-.79,.19-1.17l.83-2.48-.84-.84c-.11-.11-.18-.27-.18-.42,0-.27,.19-.51,.45-.58l.95-.24c1.17-.29,2.18-1.06,2.78-2.1l.31-.54,1.07,.36c1.45,.48,2.43,1.84,2.43,3.37v1.24h1.67c.55,0,.99,.45,.99,.99,0,.26-.11,.52-.29,.7l-2.37,2.37v4.02c0,1.24,.51,2.39,1.38,3.21-.29,.29-.55,.6-.77,.96l-2.13,3.4c-.47,.75-1.27,1.19-2.15,1.19-1.4,0-2.54-1.14-2.54-2.54v-1.53ZM8.87,6.21c0-.49,.4-.89,.89-.89h3.55c.49,0,.89,.4,.89,.89v1.77c0,.49-.4,.89-.89,.89h-3.55c-.49,0-.89-.4-.89-.89v-1.77ZM1.77,14.19V1.77h1.77V14.19s-1.77,0-1.77,0Zm3.55-7.1h1.77v1.77h-1.77v-1.77Zm20.27,29.86c-.59,.2-1.21,.3-1.84,.3-1.82,0-3.56-.87-4.65-2.32l-.65-.87-1.42,1.06,.65,.87c.04,.05,.09,.1,.13,.15l-2.29-.19c-2.74-.23-4.88-2.56-4.88-5.3V12.94l-.73-.73c-.47-.47-.79-1.06-.93-1.69,.25,.08,.51,.13,.78,.13h3.55c1.47,0,2.66-1.19,2.66-2.66v-2.66c0-.98,.8-1.77,1.77-1.77v5.75c0,.7-.21,1.38-.6,1.97l-1.18,1.77v12.48c0,1.43,.34,2.87,.98,4.16l1.59-.79c-.16-.33-.29-.67-.41-1.02l.29-.15c2.69-1.35,5.98-1.41,8.75-.23-.13,.2-.25,.42-.34,.65-.73,1.82-1.1,3.75-1.1,5.71,0,1,.1,2,.3,2.98l-.44,.14Zm1.91-3.12c0-1.74,.33-3.44,.97-5.05,.29-.71,.94-1.18,1.69-1.26v.98c0,2.38,1.93,4.31,4.31,4.31,1.5,0,2.86-.76,3.66-2.03l2.13-3.4c.65-1.04,1.78-1.67,3.01-1.67,1.13,0,2.24,.31,3.22,.89,.03,.02,.06,.04,.09,.05-2.47,.29-4.71,1.64-6.1,3.74-.94,1.4-1.43,3.04-1.43,4.72,0,2.72,1.45,5.27,3.77,6.66l.04,.02-4.89,4.2-1.83-.61c-.32-.11-.66-.16-1-.16-1.2,0-2.29,.67-2.83,1.75l-.13,.25-1.77,.88c-.08,.04-.15,.09-.23,.14v-3.15c0-1.79-.42-3.59-1.23-5.19-.94-1.88-1.43-3.98-1.43-6.08Zm22.85,12.68l-11.61,4.1-3.91,1.95c-.87,.43-1.84,.66-2.81,.66-1.02,0-1.85-.83-1.85-1.85,0-.71,.39-1.34,1.02-1.66l2.3-1.15,.39-.78c.24-.47,.71-.77,1.24-.77,.15,0,.3,.02,.44,.07l2.79,.93,7.53-6.45-2.15-1.29c-1.8-1.08-2.91-3.05-2.91-5.14,0-1.34,.39-2.63,1.13-3.74,1.25-1.88,3.35-3,5.61-3h1.12c.65,.7,1.21,1.5,1.64,2.37,.75,1.49,1.14,3.16,1.14,4.82v2.84l1.01,1.52c.5,.75,.76,1.62,.76,2.52,0,1.82-1.16,3.46-2.88,4.06Z"/>
</svg>