<?xml version="1.0" encoding="UTF-8"?>
<svg id="Camada_1" data-name="Camada 1" xmlns="http://www.w3.org/2000/svg" viewBox="0 0 55 55">
  <defs>
    <style>
      .cls-1 {
        fill: #f1c40f;
      }
    </style>
  </defs>
  <path class="cls-1" d="M47.19,19.52c-.46,0-.91,.12-1.3,.35-.4,.23-.73,.56-.95,.95-.23,.4-.35,.84-.35,1.3,0,.46,.12,.91,.34,1.3l2.97,5.2v5.48c-.51-.66-1.11-1.25-1.77-1.74v-1.47c0-1.84-.73-3.61-2.03-4.91s-3.07-2.03-4.91-2.03h-3.49l-4.64-2.32v-1.54c1.08-.8,1.94-1.86,2.51-3.07,.68,.79,1.52,1.42,2.46,1.85,.94,.43,1.97,.65,3.01,.65h3.55c.2,0,.39-.07,.55-.19,.16-.12,.27-.3,.31-.49,.05-.19,.02-.4-.06-.58-.08-.18-.23-.33-.41-.42-.92-.46-1.7-1.16-2.24-2.04-.54-.87-.83-1.88-.82-2.91V6.21c0-1.24-.37-2.46-1.07-3.49-.7-1.03-1.69-1.83-2.85-2.28-1.16-.46-2.42-.56-3.64-.29-1.21,.27-2.32,.9-3.17,1.81-1.16-.26-2.37-.25-3.53,.03-1.16,.27-2.25,.8-3.17,1.55s-1.68,1.7-2.19,2.77c-.51,1.08-.78,2.25-.78,3.45v3.55c0,.14,.03,.27,.09,.4,.06,.12,.15,.23,.26,.31,.1,.07,.21,.12,.32,.14,.12,.02,.24,.03,.35,0,.32,2.34,1.54,4.47,3.41,5.92v1.55l-4.64,2.32h-3.49c-1.84,0-3.61,.73-4.91,2.03-1.3,1.3-2.03,3.07-2.03,4.91v1.47c-.67,.5-1.26,1.08-1.77,1.74v-5.48l2.98-5.21c.23-.4,.34-.85,.34-1.3,0-.46-.12-.9-.35-1.3-.23-.39-.56-.72-.95-.95-.4-.23-.84-.35-1.3-.35-.91,0-1.81,.24-2.59,.71-.79,.46-1.43,1.13-1.88,1.92C1.15,26.09,0,30.52,0,35.03v6.44c0,.92,.27,1.82,.78,2.58,.51,.76,1.24,1.36,2.09,1.71,.85,.35,1.79,.44,2.69,.26,.9-.18,1.73-.62,2.38-1.27l8.53-8.53,1.65,4.97c.58,1.74,.66,3.61,.24,5.4-.42,1.79-1.33,3.42-2.63,4.72l-2.17,2.17c-.12,.12-.21,.28-.24,.45-.03,.17-.02,.35,.05,.51,.07,.16,.18,.3,.33,.4,.15,.1,.32,.15,.49,.15h26.61c.18,0,.35-.05,.49-.15,.15-.1,.26-.24,.33-.4,.07-.16,.08-.34,.05-.51-.03-.17-.12-.33-.24-.45l-2.17-2.17c-1.3-1.3-2.21-2.93-2.63-4.72-.42-1.79-.34-3.65,.24-5.4l1.65-4.97,8.53,8.53c.65,.65,1.48,1.09,2.38,1.27,.9,.18,1.84,.09,2.69-.26,.85-.35,1.58-.95,2.09-1.71,.51-.76,.78-1.66,.78-2.58v-6.44c0-4.51-1.15-8.95-3.34-12.89-.44-.8-1.09-1.46-1.88-1.92-.79-.46-1.68-.71-2.59-.71Zm-.72,3.02c-.07-.13-.11-.27-.11-.42,0-.15,.04-.29,.11-.42,.07-.13,.18-.23,.3-.3,.13-.07,.27-.11,.42-.11,.6,0,1.18,.16,1.69,.46,.51,.3,.94,.74,1.22,1.26,.79,1.43,1.44,2.94,1.93,4.49h-2.74l-2.83-4.96ZM33.71,1.77c1.18,0,2.3,.47,3.13,1.3,.83,.83,1.3,1.96,1.3,3.13v6.68c0,1.79,.65,3.52,1.84,4.85h-.95c-.96,0-1.91-.25-2.74-.74-.83-.48-1.52-1.18-2-2.01,.07-.27,.12-.55,.17-.83,.05,.02,.09,.03,.14,.03,.24,0,.46-.09,.63-.26,.17-.17,.26-.39,.26-.63v-3.55c0-1.48-.41-2.93-1.19-4.18-.78-1.26-1.89-2.27-3.21-2.94,.76-.56,1.68-.86,2.62-.86Zm-12.42,7.98c0-1.65,.65-3.23,1.82-4.39,1.16-1.16,2.74-1.82,4.39-1.82s3.23,.65,4.39,1.82c1.16,1.16,1.82,2.74,1.82,4.39v1.1l-2.87-3.44c-.1-.12-.23-.21-.38-.27-.15-.05-.31-.07-.46-.04-.16,.03-.3,.1-.42,.2-.12,.1-.21,.24-.26,.39-.23,.69-.62,1.31-1.14,1.81-.52,.5-1.15,.88-1.85,1.09l-5.04,1.51v-2.36Zm.98,3.92l4.58-1.37c1.46-.44,2.71-1.39,3.52-2.69l2.45,2.94c-.06,3.85-2.42,6.96-5.32,6.96-2.58,0-4.79-2.51-5.23-5.84Zm2.97,9.3c.15-.07,.27-.19,.36-.33,.09-.14,.13-.3,.13-.47v-1.18c1.15,.39,2.4,.39,3.55,0v1.18c0,.16,.05,.33,.13,.47,.09,.14,.21,.25,.36,.33l1.69,.85,1.2,7.23h-10.32l1.2-7.23,1.69-.84Zm-20.34,.04c.29-.52,.71-.95,1.22-1.26,.51-.3,1.1-.46,1.69-.46,.15,0,.29,.04,.42,.11,.13,.07,.23,.18,.3,.3,.07,.13,.11,.27,.11,.42,0,.15-.04,.29-.11,.42l-2.83,4.96H2.96c.49-1.56,1.14-3.06,1.94-4.49h0Zm1.79,20.51c-.4,.4-.91,.68-1.47,.79-.56,.11-1.14,.05-1.66-.16-.53-.22-.97-.59-1.29-1.06-.32-.47-.48-1.03-.48-1.6v-6.44c0-1.94,.24-3.87,.69-5.76h2.86v8.87c0,.22,.08,.43,.22,.59,.14,.16,.34,.27,.56,.29,.21,.02,.43-.03,.61-.15,.18-.12,.31-.3,.36-.51l.11-.44c.44-1.78,1.54-3.34,3.07-4.35,.12-.08,.22-.19,.29-.32s.1-.27,.1-.42v-1.93c0-.68,.13-1.35,.39-1.98,.26-.63,.64-1.2,1.12-1.68,.48-.48,1.05-.86,1.68-1.12,.63-.26,1.3-.39,1.98-.39h2.54l-2.29,8.41-9.38,9.38Zm31.33,9.06l.65,.65H16.33l.65-.65c1.26-1.25,2.22-2.77,2.79-4.45,.58-1.68,.75-3.47,.52-5.23,4.67-1.57,9.72-1.57,14.39,0-.23,1.76-.05,3.55,.52,5.23,.58,1.68,1.53,3.2,2.79,4.45Zm-2.82-11.93c-.06,.17-.1,.34-.15,.51-4.91-1.6-10.19-1.6-15.1,0-.05-.17-.09-.34-.15-.51l-2.02-6.07,2.48-9.12,1.31-.66-1.16,6.99c-.02,.13-.01,.26,.02,.38,.03,.12,.1,.24,.18,.34,.08,.1,.19,.18,.3,.23,.12,.05,.24,.08,.37,.08h12.42c.13,0,.26-.03,.37-.08,.12-.05,.22-.13,.3-.23,.08-.1,.14-.21,.18-.34,.03-.12,.04-.25,.02-.38l-1.16-6.99,1.31,.66,2.48,9.12-2.02,6.07Zm18.03,.84c0,.57-.17,1.13-.48,1.6-.32,.47-.77,.84-1.29,1.06-.53,.22-1.1,.27-1.66,.16s-1.07-.38-1.47-.79l-9.37-9.38-2.3-8.41h2.54c.68,0,1.35,.13,1.98,.39,.63,.26,1.2,.64,1.68,1.12,.48,.48,.86,1.05,1.12,1.68,.26,.63,.39,1.3,.39,1.98v1.93c0,.15,.04,.29,.1,.42,.07,.13,.17,.24,.29,.32,1.53,1.02,2.62,2.57,3.06,4.35l.11,.44c.05,.21,.18,.4,.36,.53,.18,.13,.4,.18,.62,.15,.22-.03,.42-.13,.56-.3,.14-.17,.22-.38,.22-.6v-8.87h2.86c.46,1.89,.69,3.82,.69,5.76v6.44Z"/>
</svg>