<?xml version="1.0" encoding="UTF-8"?>
<svg id="Camada_1" data-name="Camada 1" xmlns="http://www.w3.org/2000/svg" viewBox="0 0 35.57 35">
  <defs>
    <style>
      .cls-1 {
        fill: #f1c40f;
      }
    </style>
  </defs>
  <path class="cls-1" d="M6.89,14.34c-.57,0-1.12-.17-1.59-.48-.47-.32-.84-.76-1.06-1.29-.22-.52-.27-1.1-.16-1.66,.11-.56,.38-1.07,.79-1.47s.91-.67,1.47-.79c.56-.11,1.13-.05,1.66,.16,.52,.22,.97,.58,1.29,1.06,.32,.47,.48,1.03,.48,1.59,0,.76-.3,1.49-.84,2.03-.54,.54-1.27,.84-2.03,.84Zm0-4.59c-.34,0-.67,.1-.96,.29-.28,.19-.5,.46-.63,.77s-.16,.66-.1,.99c.07,.33,.23,.64,.47,.88,.24,.24,.55,.4,.88,.47,.33,.07,.68,.03,.99-.1,.31-.13,.58-.35,.77-.63,.19-.28,.29-.62,.29-.96,0-.46-.18-.89-.5-1.22-.32-.32-.76-.5-1.22-.5Z"/>
  <path class="cls-1" d="M5.16,26.39H.57c-.15,0-.3-.06-.41-.17C.06,26.12,0,25.97,0,25.82c0-1.59,.3-3.16,.89-4.64l1.87-4.69c.25-.63,.71-1.15,1.31-1.47,.59-.32,1.28-.43,1.94-.29,.39,.08,.75,.23,1.08,.46,.32,.22,.6,.51,.81,.84l2.2,3.52,2.7,.39c.45,.06,.86,.3,1.15,.65,.29,.35,.43,.81,.4,1.26-.03,.46-.24,.88-.57,1.19-.33,.31-.77,.48-1.23,.48h-4.51c-.11,0-.21-.03-.3-.09-.09-.06-.16-.14-.21-.23l-.95-1.9-.84,4.62c-.02,.13-.09,.25-.2,.34-.1,.09-.23,.13-.37,.13Zm-4-1.15h3.52l1.06-5.84c.02-.12,.08-.23,.17-.31,.09-.08,.2-.14,.32-.15,.12-.02,.24,0,.35,.06,.11,.06,.19,.14,.25,.25l1.56,3.13h4.15c.17,0,.32-.06,.45-.18,.12-.11,.19-.27,.21-.43,.01-.16-.04-.33-.14-.46-.1-.13-.25-.21-.42-.24l-2.96-.42c-.08-.01-.16-.04-.23-.09-.07-.05-.13-.11-.17-.18l-2.34-3.74c-.17-.27-.41-.49-.7-.64-.29-.14-.61-.2-.93-.18-.32,.03-.63,.15-.88,.34-.26,.19-.46,.45-.58,.75l-1.88,4.69c-.47,1.16-.73,2.39-.8,3.64Z"/>
  <path class="cls-1" d="M28.69,14.34c-.57,0-1.12-.17-1.59-.48-.47-.32-.84-.76-1.06-1.29-.22-.52-.27-1.1-.16-1.66s.38-1.07,.79-1.47c.4-.4,.91-.67,1.47-.79,.56-.11,1.13-.05,1.66,.16,.52,.22,.97,.58,1.29,1.06,.32,.47,.48,1.03,.48,1.59,0,.76-.3,1.49-.84,2.03s-1.27,.84-2.03,.84Zm0-4.59c-.34,0-.67,.1-.96,.29-.28,.19-.5,.46-.63,.77-.13,.31-.16,.66-.1,.99,.07,.33,.23,.64,.47,.88,.24,.24,.55,.4,.88,.47,.33,.07,.68,.03,.99-.1,.31-.13,.58-.35,.77-.63,.19-.28,.29-.62,.29-.96,0-.46-.18-.89-.5-1.22-.32-.32-.76-.5-1.22-.5Z"/>
  <path class="cls-1" d="M35,26.39h-4.59c-.13,0-.26-.05-.37-.13-.1-.09-.17-.21-.2-.34l-.84-4.62-.95,1.9c-.05,.1-.12,.18-.21,.23-.09,.06-.2,.09-.3,.08h-4.51c-.46,0-.9-.17-1.23-.48-.33-.31-.54-.74-.57-1.19-.03-.46,.11-.91,.4-1.26,.29-.36,.7-.59,1.15-.65l2.7-.39,2.2-3.52c.21-.33,.48-.62,.81-.84,.32-.22,.69-.38,1.08-.46,.66-.13,1.35-.03,1.94,.29,.59,.32,1.06,.84,1.31,1.47l1.87,4.69c.59,1.47,.9,3.05,.89,4.64,0,.15-.06,.3-.17,.41-.11,.11-.25,.17-.41,.17Zm-4.11-1.15h3.52c-.06-1.25-.33-2.48-.8-3.64l-1.88-4.69c-.12-.3-.32-.56-.58-.75-.26-.19-.56-.31-.88-.34-.32-.03-.64,.03-.93,.18-.29,.14-.53,.36-.7,.64l-2.34,3.74c-.04,.07-.1,.13-.17,.18-.07,.05-.15,.08-.23,.09l-2.96,.42c-.16,.02-.31,.11-.42,.24-.1,.13-.15,.29-.14,.46,.01,.17,.09,.32,.21,.43,.12,.11,.28,.18,.45,.18h4.15l1.56-3.13c.05-.11,.14-.2,.25-.25,.11-.06,.23-.08,.35-.06,.12,.02,.23,.07,.32,.15,.09,.08,.15,.19,.17,.31l1.06,5.84Z"/>
  <path class="cls-1" d="M25.04,18l-.76-1.93H11.29l-.53,1.36-1.07-.42,.67-1.72c.04-.11,.11-.2,.21-.26,.09-.07,.21-.1,.32-.1h13.77c.12,0,.23,.03,.32,.1,.1,.07,.17,.16,.21,.26l.9,2.3-1.07,.42Z"/>
  <path class="cls-1" d="M17.79,28.69c-.91,0-1.79-.36-2.43-1.01-.65-.65-1.01-1.52-1.01-2.43v-.57c0-.91,.36-1.79,1.01-2.43,.65-.65,1.52-1.01,2.43-1.01s1.79,.36,2.43,1.01,1.01,1.52,1.01,2.43v.57c0,.91-.36,1.79-1.01,2.43-.65,.65-1.52,1.01-2.43,1.01Zm0-6.31c-.61,0-1.19,.24-1.62,.67-.43,.43-.67,1.01-.67,1.62v.57c0,.61,.24,1.19,.67,1.62,.43,.43,1.01,.67,1.62,.67s1.19-.24,1.62-.67c.43-.43,.67-1.01,.67-1.62v-.57c0-.61-.24-1.19-.67-1.62-.43-.43-1.01-.67-1.62-.67Z"/>
  <path class="cls-1" d="M24.1,35h-1.15v-2.87c0-.46-.18-.89-.5-1.22-.32-.32-.76-.5-1.22-.5h-6.89c-.46,0-.89,.18-1.22,.5s-.5,.76-.5,1.22v2.87h-1.15v-2.87c0-.76,.3-1.49,.84-2.03s1.27-.84,2.03-.84h6.89c.76,0,1.49,.3,2.03,.84,.54,.54,.84,1.27,.84,2.03v2.87Z"/>
  <path class="cls-1" d="M29.84,31.56h-5.16v-1.15h4.59v-1.61l-1.76-4.49,1.07-.42,1.8,4.59c.03,.07,.04,.14,.04,.21v2.3c0,.15-.06,.3-.17,.41s-.25,.17-.41,.17Z"/>
  <path class="cls-1" d="M10.9,31.56H5.74c-.15,0-.3-.06-.41-.17-.11-.11-.17-.25-.17-.41v-2.3c0-.07,.01-.14,.04-.21l1.8-4.59,1.07,.42-1.76,4.49v1.61h4.59v1.15Z"/>
  <path class="cls-1" d="M33.85,15.49h-1.15V1.15H2.87V15.49H1.72V.57c0-.15,.06-.3,.17-.41,.11-.11,.25-.17,.41-.17h30.98c.15,0,.3,.06,.41,.17,.11,.11,.17,.25,.17,.41V15.49Z"/>
  <path class="cls-1" d="M11.88,11.88l-.81-.81,4.02-4.02c.11-.11,.25-.17,.41-.17s.3,.06,.41,.17l3.04,3.04,7.05-7.05,.81,.81-7.46,7.46c-.11,.11-.25,.17-.41,.17s-.3-.06-.41-.17l-3.04-3.04-3.61,3.61Z"/>
  <path class="cls-1" d="M26.97,6.89h-1.15v-2.87h-2.87v-1.15h3.44c.15,0,.3,.06,.41,.17,.11,.11,.17,.25,.17,.41v3.44Z"/>
  <path class="cls-1" d="M5.74,2.87h6.89v1.15H5.74v-1.15Z"/>
  <path class="cls-1" d="M5.74,5.16h4.02v1.15H5.74v-1.15Z"/>
</svg>