<?xml version="1.0" encoding="UTF-8"?>
<svg id="Camada_1" data-name="Camada 1" xmlns="http://www.w3.org/2000/svg" viewBox="0 0 34 34">
  <defs>
    <style>
      .cls-1 {
        fill: #f1c40f;
      }
    </style>
  </defs>
  <path class="cls-1" d="M29.33,13.7c.15-.32,.2-.68,.14-1.02-.06-.35-.22-.67-.47-.92-.33-.31-.76-.48-1.21-.48s-.88,.17-1.21,.48l-.4,.4-.57-.57,.91-.91c.2-.19,.45-.34,.72-.42,.27-.08,.55-.1,.83-.05,.79,.12,1.6,.05,2.37-.21,.76-.25,1.46-.68,2.02-1.24,.72-.72,1.22-1.64,1.41-2.65,.2-1,.09-2.04-.31-2.98-.04-.09-.09-.16-.17-.22-.07-.06-.16-.1-.25-.12-.09-.02-.19-.01-.28,.01-.09,.03-.17,.08-.24,.14l-2.78,2.78-1.34-.27-.27-1.34,2.77-2.78c.07-.07,.12-.15,.14-.24,.03-.09,.03-.18,.01-.28-.02-.09-.06-.18-.12-.25-.06-.07-.14-.13-.22-.17-.84-.36-1.76-.48-2.66-.37-.9,.12-1.76,.47-2.48,1.03-.72,.56-1.28,1.3-1.62,2.15-.34,.85-.44,1.77-.31,2.67,.05,.28,.03,.56-.05,.83-.08,.27-.22,.52-.42,.72l-.91,.91-3.8-3.8-.77-1.53c-.05-.1-.13-.19-.23-.24L13.97,.78c-.11-.06-.23-.08-.36-.07-.12,.02-.24,.07-.32,.16l-.8,.8c-.09,.09-.14,.2-.16,.32-.02,.12,0,.25,.07,.36l2.01,3.63c.06,.1,.14,.18,.24,.23l1.53,.77,3.79,3.8-.91,.91c-.2,.19-.45,.34-.72,.42-.27,.08-.55,.1-.83,.05-.9-.14-1.82-.03-2.67,.31-.85,.34-1.59,.9-2.15,1.62-.56,.72-.92,1.58-1.03,2.48-.12,.9,0,1.83,.36,2.67,.04,.09,.09,.16,.17,.22,.07,.06,.16,.1,.25,.12,.09,.02,.19,.01,.28-.01,.09-.03,.17-.08,.24-.14l2.77-2.78,1.34,.27,.27,1.34-2.77,2.78c-.07,.07-.11,.15-.14,.24-.03,.09-.03,.18-.01,.28,.02,.09,.06,.18,.12,.25,.06,.07,.13,.13,.22,.17,.84,.36,1.76,.48,2.66,.37,.9-.12,1.76-.48,2.48-1.03,.72-.56,1.28-1.3,1.62-2.15,.34-.85,.44-1.77,.31-2.67-.05-.28-.03-.56,.05-.83,.08-.27,.22-.52,.42-.72l.91-.91,.57,.57-.4,.4c-.29,.28-.46,.66-.5,1.06-.04,.4,.07,.8,.31,1.13,.23,.33,.58,.57,.97,.67,.39,.1,.81,.06,1.17-.12l3.36,3.37c.26,.26,.58,.47,.92,.62,.35,.14,.72,.22,1.09,.22s.74-.07,1.09-.22c.35-.14,.66-.35,.92-.62,.26-.26,.47-.58,.62-.93,.14-.35,.22-.72,.22-1.09,0-.37-.07-.75-.22-1.09-.14-.35-.35-.66-.62-.93l-3.37-3.37Zm-12.41-7.59s-.09-.08-.15-.11l-1.45-.73-1.72-3.1,.19-.19,3.09,1.72,.73,1.46c.03,.05,.06,.1,.11,.15l3.86,3.87-.81,.81-3.86-3.87Zm4.56,8c-.32,.33-.56,.73-.7,1.17-.14,.44-.17,.9-.09,1.36,.09,.63,.04,1.27-.16,1.87-.2,.6-.54,1.15-1,1.59-.45,.44-1.01,.77-1.61,.96-.61,.19-1.25,.22-1.87,.11l2.32-2.32c.07-.07,.11-.15,.14-.24,.03-.09,.03-.18,.01-.28l-.41-2.02c-.02-.11-.08-.21-.16-.29-.08-.08-.18-.13-.29-.16l-2.01-.4c-.09-.02-.19-.01-.28,.01-.09,.03-.17,.08-.24,.14l-2.32,2.32c-.11-.62-.07-1.27,.11-1.87,.19-.61,.51-1.16,.96-1.62,.44-.45,.99-.8,1.59-1,.6-.2,1.24-.26,1.87-.16,.45,.07,.92,.04,1.35-.09,.44-.14,.84-.37,1.17-.69l4.24-4.24c.32-.33,.56-.73,.7-1.17,.14-.44,.17-.9,.09-1.36-.09-.63-.04-1.27,.16-1.87,.2-.6,.54-1.15,1-1.59,.45-.44,1.01-.77,1.61-.96,.61-.19,1.25-.22,1.87-.11l-2.32,2.32c-.07,.07-.11,.15-.14,.24s-.03,.18-.01,.28l.4,2.02c.02,.11,.08,.21,.16,.29,.08,.08,.18,.13,.29,.16l2.01,.4c.09,.02,.19,.01,.28-.01,.09-.03,.17-.08,.24-.14l2.32-2.32c.11,.62,.07,1.27-.11,1.87-.19,.61-.51,1.16-.96,1.62-.44,.45-.99,.8-1.59,1-.6,.2-1.24,.26-1.87,.16-.45-.07-.92-.04-1.35,.09-.44,.14-.84,.37-1.17,.69l-4.24,4.24Zm3.33-1.72l.57,.57-.81,.81-.57-.57,.81-.81Zm-.64,4.2c-.11-.11-.17-.25-.17-.4s.06-.3,.17-.4l3.22-3.23c.05-.05,.12-.09,.18-.12,.07-.03,.14-.04,.22-.04,.07,0,.15,.01,.22,.04,.07,.03,.13,.07,.18,.12,.05,.05,.09,.12,.12,.19,.03,.07,.04,.14,.04,.22,0,.07-.01,.15-.04,.22-.03,.07-.07,.13-.12,.19l-3.22,3.23c-.11,.1-.25,.16-.4,.16-.15,0-.3-.06-.4-.16h0Zm7.72,3.7c-.32,.32-.76,.5-1.21,.5s-.89-.18-1.21-.5l-3.29-3.3,2.42-2.42,3.29,3.3c.16,.16,.28,.35,.37,.56s.13,.43,.13,.65-.04,.45-.13,.65-.21,.4-.37,.56Z"/>
  <path class="cls-1" d="M33.7,24.25c-.15-.26-.35-.49-.58-.67-.24-.18-.51-.32-.8-.39-.29-.08-.59-.1-.89-.06-.3,.04-.58,.14-.84,.29l-5.56,3.21c-.3-.46-.76-.79-1.29-.93l-8.5-2.28c-.65-.18-1.34-.18-2-.02l-2.99,.75v-.98c0-.15-.06-.3-.17-.4-.11-.11-.25-.17-.4-.17H5.13c-.15,0-.3,.06-.4,.17-.11,.11-.17,.25-.17,.4v.57H.57c-.15,0-.3,.06-.4,.17-.11,.11-.17,.25-.17,.4v7.98c0,.15,.06,.3,.17,.4,.11,.11,.25,.17,.4,.17h3.99v.57c0,.15,.06,.3,.17,.4,.11,.11,.25,.17,.4,.17h4.56c.15,0,.3-.06,.4-.17,.11-.11,.17-.25,.17-.4v-.79l.73,.37c.55,.28,1.16,.42,1.78,.42h8.53c.7,0,1.39-.18,1.99-.53l9.57-5.53c.52-.3,.9-.8,1.06-1.39,.16-.58,.07-1.21-.23-1.73ZM1.14,31.72v-6.84h3.42v6.84H1.14Zm7.98,1.14h-3.42v-9.13h3.42v9.13Zm23.18-6.48l-9.57,5.53c-.43,.25-.92,.38-1.42,.38H12.77c-.44,0-.88-.1-1.27-.3l-1.24-.62v-6.05l3.27-.82c.47-.12,.96-.11,1.43,.01l8.5,2.28c.15,.04,.29,.1,.41,.19,.12,.09,.22,.2,.3,.34s.13,.28,.15,.43c.02,.15,.01,.3-.03,.45-.04,.15-.11,.28-.2,.4s-.21,.22-.34,.29c-.13,.07-.28,.12-.43,.14-.15,.02-.3,0-.45-.04l-6.79-1.82c-.15-.04-.3-.02-.43,.06-.13,.08-.23,.2-.26,.35-.04,.15-.02,.3,.06,.43,.08,.13,.2,.23,.34,.27l6.79,1.83c.19,.05,.39,.08,.59,.08,.31,0,.63-.06,.91-.19,.29-.13,.55-.31,.76-.54,.21-.23,.37-.51,.48-.8,.1-.3,.14-.61,.11-.93l5.74-3.32c.26-.14,.57-.18,.86-.1,.29,.08,.54,.26,.69,.52,.15,.26,.19,.57,.11,.86-.08,.29-.27,.54-.53,.69Z"/>
</svg>